<svg width="128" height="128" viewBox="0 0 128 128" fill="none" xmlns="http://www.w3.org/2000/svg">
<rect width="128" height="128" rx="64" fill="#D1E2E9"/>
<path d="M54.1103 54.3378C58.2539 54.3378 61.613 50.9788 61.613 46.8352C61.613 42.6916 58.2539 39.3325 54.1103 39.3325C49.9667 39.3325 46.6077 42.6916 46.6077 46.8352C46.6077 50.9788 49.9667 54.3378 54.1103 54.3378Z" fill="#264D74" stroke="#D1E2E9" stroke-width="2" stroke-miterlimit="10"/>
<path d="M58.2027 54.3379C56.9522 55.02 55.5881 55.361 54.1103 55.361C52.6326 55.361 51.1547 55.02 50.018 54.3379C45.8119 56.043 42.7427 60.1354 42.7427 64.9098V83.6665H65.478V64.9098C65.478 60.1354 62.4087 56.043 58.2027 54.3379Z" fill="#264D74" stroke="#D1E2E9" stroke-width="2" stroke-miterlimit="10"/>
<path d="M87.1904 46.8352C87.1904 50.9275 83.8938 54.3378 79.6877 54.3378C75.5954 54.3378 72.1851 51.0412 72.1851 46.8352C72.1851 42.6291 75.4817 39.3325 79.6877 39.3325C83.8938 39.4462 87.1904 42.7428 87.1904 46.8352Z" fill="#264D74" stroke="#D1E2E9" stroke-width="2" stroke-miterlimit="10"/>
<path d="M83.8936 54.3379C82.6432 55.02 81.2791 55.361 79.8013 55.361C78.3235 55.361 76.8457 55.02 75.7089 54.3379C71.5029 56.043 68.4336 60.1354 68.4336 64.9098V83.6665H91.1689V64.9098C91.0553 60.1354 88.0997 56.043 83.8936 54.3379Z" fill="#264D74" stroke="#D1E2E9" stroke-width="2" stroke-miterlimit="10"/>
<path d="M48.7677 58.8845C48.7677 62.9769 45.471 66.3872 41.265 66.3872C37.1726 66.3872 33.7623 63.0905 33.7623 58.8845C33.7623 54.7921 37.059 51.3818 41.265 51.3818C45.3574 51.3818 48.7677 54.7921 48.7677 58.8845Z" fill="#264D74" stroke="#D1E2E9" stroke-width="2" stroke-miterlimit="10"/>
<path d="M45.3574 66.3877C44.1069 67.0698 42.7428 67.4108 41.265 67.4108C39.7872 67.4108 38.3094 67.0698 37.1726 66.3877C32.9666 68.0928 29.8973 72.1852 29.8973 76.9596V83.3255H52.6327V76.9596C52.6327 72.1852 49.5634 68.0928 45.3574 66.3877Z" fill="#264D74" stroke="#D1E2E9" stroke-width="2" stroke-miterlimit="10"/>
<path d="M74.3447 58.8845C74.3447 62.9769 71.0481 66.3872 66.842 66.3872C62.7497 66.3872 59.3394 63.0905 59.3394 58.8845C59.3394 54.7921 62.636 51.3818 66.842 51.3818C71.0481 51.3818 74.3447 54.7921 74.3447 58.8845Z" fill="#264D74" stroke="#D1E2E9" stroke-width="2" stroke-miterlimit="10"/>
<path d="M71.0481 66.3877C69.7976 67.0698 68.4335 67.4108 66.9557 67.4108C65.4779 67.4108 64.0001 67.0698 62.8633 66.3877C58.6573 68.0928 55.588 72.1852 55.588 76.9596V83.3255H78.3234V76.9596C78.2097 72.1852 75.2541 68.0928 71.0481 66.3877Z" fill="#264D74" stroke="#D1E2E9" stroke-width="2" stroke-miterlimit="10"/>
<path d="M100.036 58.8845C100.036 62.9769 96.739 66.3872 92.5329 66.3872C88.4406 66.3872 85.0303 63.0905 85.0303 58.8845C85.0303 54.7921 88.3269 51.3818 92.5329 51.3818C96.6253 51.3818 100.036 54.7921 100.036 58.8845Z" fill="#264D74" stroke="#D1E2E9" stroke-width="2" stroke-miterlimit="10"/>
<path d="M96.6252 66.3877C95.3748 67.0698 94.0106 67.4108 92.5328 67.4108C91.055 67.4108 89.5772 67.0698 88.4405 66.3877C84.2344 68.0928 81.1652 72.1852 81.1652 76.9596V83.3255H103.901V76.9596C103.901 72.1852 100.945 68.0928 96.6252 66.3877Z" fill="#264D74" stroke="#D1E2E9" stroke-width="2" stroke-miterlimit="10"/>
<rect x="22.5858" y="100" width="108.773" height="7.33865" rx="3.66933" transform="rotate(-45 22.5858 100)" fill="#264D74" stroke="#D1E2E9" stroke-width="2"/>
</svg>
