<svg width="128" height="128" viewBox="0 0 128 128" fill="none" xmlns="http://www.w3.org/2000/svg">
<rect width="128" height="128" rx="64" fill="#D1E2E9"/>
<path d="M89.1226 41.0373C89.1226 40.4689 89.1226 40.0142 89.1226 39.4458C89.0089 37.7406 88.3269 36.1492 87.6448 34.6714C83.7798 25.6909 77.3002 17.7335 67.524 15.2327C59.453 13.0728 50.9272 15.0053 44.334 20.0071C33.421 28.1918 30.1244 43.0834 35.4672 55.4742C36.945 58.7708 38.7638 61.9538 40.81 64.9094C41.6057 65.9325 42.4015 66.9556 42.8562 68.206C43.3109 69.1154 43.4246 70.1385 43.6519 71.1616C44.9024 78.0959 44.5613 85.0302 44.5613 91.9644H71.2754V79.6874C71.8438 79.6874 72.2985 79.5737 72.8668 79.5737C76.6182 79.3463 83.0977 79.0053 84.5755 78.4369C86.7354 77.6412 86.7354 69.6838 87.0764 69.1154C87.4175 68.547 88.5542 67.7513 88.8953 67.1829C89.2363 66.6145 88.4406 65.5914 88.4406 65.5914C88.4406 65.5914 89.0089 65.2504 89.2363 64.682C89.4636 64.1136 89.0089 62.5222 89.1226 61.8401C89.2363 61.1581 93.215 61.1581 93.4423 59.9076C93.7834 58.0888 91.7372 54.5648 91.1688 52.8596C90.1457 49.9041 88.8953 46.3801 89.0089 43.1971C89.0089 42.5151 89.0089 41.833 89.1226 41.0373Z" fill="white" stroke="#264D74" stroke-width="2" stroke-miterlimit="10" stroke-linecap="round"/>
<path d="M62.2948 50.927C62.2948 50.927 58.4298 44.5611 54.6785 48.9945C50.9271 53.4279 53.3143 63.6588 60.2486 61.84" stroke="#264D74" stroke-width="2" stroke-miterlimit="10" stroke-linecap="round"/>
<path d="M80.1421 42.97V43.9931C80.1421 43.9931 86.9627 43.9931 86.9627 43.8794C87.0764 43.8794 87.19 42.97 86.9627 42.7426C85.5986 41.0375 80.1421 42.97 80.1421 42.97Z" fill="#264D74"/>
<path d="M81.3926 48.9945C81.3926 50.1313 82.302 50.927 83.3251 50.927C84.4619 50.927 85.2576 50.0176 85.2576 48.9945C85.2576 47.8577 84.3482 47.062 83.3251 47.062C82.302 47.062 81.3926 47.9714 81.3926 48.9945Z" fill="#264D74"/>
<path d="M89.2362 64.6821C85.9396 64.6821 81.7335 65.5915 81.6198 65.5915C81.3925 65.7052 81.2788 65.9326 81.2788 66.1599C81.3925 66.3873 81.6198 66.501 81.8472 66.501C81.8472 66.501 85.2575 65.5915 88.4404 65.5915" fill="#DDBE9B"/>
<path d="M72.2985 52.064L95.0338 57.1794C95.0338 57.1794 94.9201 78.2096 82.9841 80.5968C82.9841 80.5968 77.5276 78.778 73.5489 74.913C69.7976 71.2753 67.0693 65.8189 67.0693 65.8189C73.6626 60.8171 72.2985 52.064 72.2985 52.064Z" fill="#264D74"/>
<path d="M76.1634 53.7692L60.817 49.2222" stroke="#264D74" stroke-width="2" stroke-miterlimit="10" stroke-linecap="round"/>
<path d="M57.9751 61.9536L70.9343 67.1827" stroke="#264D74" stroke-width="2" stroke-miterlimit="10" stroke-linecap="round"/>
<path d="M63.7727 56.3834C65.1368 56.3834 65.5915 49.3355 66.2736 47.0619C66.9556 44.6747 70.3659 42.6286 71.8437 39.5593C73.3215 36.49 73.0942 23.3035 73.0942 23.3035C73.0942 23.3035 80.1421 24.554 85.7123 30.6925L88.0995 35.8079C88.0995 35.8079 87.9858 26.7138 87.0764 22.0531C86.167 17.3923 73.5489 12.2769 60.135 11.7085C46.8348 11.1401 39.3322 16.7103 38.5364 18.5291C37.7407 20.2342 37.9681 23.6445 37.9681 23.6445C37.9681 23.6445 33.421 25.3497 31.3748 27.9643C29.3286 30.5788 28.5329 42.1738 31.3748 51.8364C34.2167 61.4989 43.7656 71.9571 43.7656 71.9571C43.7656 71.9571 46.0391 71.5024 48.54 68.6605C51.0409 65.7049 52.5187 59.6801 52.8597 55.0193C53.3144 50.3586 54.5649 47.403 57.8615 47.8577C59.9077 48.1987 62.1812 50.1312 62.1812 51.1543C62.2949 52.0637 62.1812 56.4971 63.7727 56.3834Z" fill="#264D74"/>
<path d="M89.8046 122.657C89.5773 121.179 89.2362 119.474 89.0089 117.542C85.9396 96.3978 71.1616 87.3036 59.7939 86.0532H59.6803L44.6749 84.8027C35.0124 87.1899 32.6252 98.8986 32.9662 108.789L33.8757 120.497C42.8561 125.272 53.087 128 64 128C73.2078 128 81.8472 126.067 89.8046 122.657Z" fill="#264D74"/>
</svg>
