<svg width="128" height="128" viewBox="0 0 128 128" fill="none" xmlns="http://www.w3.org/2000/svg">
<rect width="128" height="128" rx="64" fill="#D1E2E9"/>
<path d="M59.7942 97.7866C59.5668 98.0138 59.2258 98.1274 58.8848 98.241C56.8386 98.4681 54.9061 97.3323 54.224 95.4016C54.1104 95.1744 54.1104 95.0608 54.1104 95.0608L59.4532 90.0635H60.1352C61.0446 90.0635 61.954 90.4042 62.6361 90.9721C63.3182 91.5399 63.8866 92.335 64.1139 93.2436C64.2276 93.5843 64.1139 93.9251 63.8866 94.0386L61.7267 96.083L59.7942 97.7866Z" fill="#F9FBFC"/>
<path d="M49.1082 80.2965L49.4493 82.3409L44.3338 86.4296H44.1065C42.174 85.8617 40.6962 84.2717 40.2415 82.3409L45.0159 78.1386C45.2432 77.9114 45.5843 77.7979 46.039 77.7979C46.1527 77.7979 46.1526 77.7979 46.2663 77.7979C47.7441 77.9114 48.8809 78.9336 49.1082 80.2965Z" fill="#F9FBFC"/>
<path d="M53.8828 85.9748L48.9947 91.0857C48.9947 91.0857 48.4263 90.9721 47.6306 90.745C45.9255 90.2907 44.5613 88.8142 44.4477 87.1105C44.4477 86.6562 44.334 86.4291 44.334 86.4291L49.4494 82.3403L49.6768 82.4539C51.6093 82.7946 53.2008 84.1575 53.8828 85.9748Z" fill="#F9FBFC"/>
<path d="M54.1101 94.9481C54.1101 94.9481 53.7691 94.9481 53.2007 94.9481C51.0408 94.9481 49.222 93.2444 48.9946 91.0865L53.8827 85.9756L54.5648 86.0892C55.7016 86.2027 56.7247 86.6571 57.6341 87.3385C58.5435 88.02 59.2255 88.9286 59.5666 90.0643L54.1101 94.9481Z" fill="#F9FBFC"/>
<path d="M84.8028 59.1709L88.8951 80.0688L86.3942 80.4096C79.5736 74.1629 68.0923 63.7139 68.0923 63.7139C68.0923 63.7139 66.9555 65.1904 62.7495 67.4619C60.2486 68.8248 57.1793 68.3705 55.2468 67.9162C54.2237 67.5755 53.8827 66.3261 54.6784 65.5311L62.2948 58.4894C63.7726 57.1265 65.8187 56.6722 67.7512 57.2401L75.2539 59.5116L84.8028 59.1709Z" fill="#F9FBFC"/>
<path d="M59.5668 89.9499C59.2257 88.8141 58.5437 87.9055 57.6343 87.2241C56.7248 86.5426 55.7018 86.0883 54.565 85.9747L53.8829 85.8611C53.2009 84.0439 51.6094 82.681 49.6769 82.2267L49.4495 82.1131L49.1085 80.0688C48.8812 78.7059 47.7444 77.6837 46.3803 77.4565C46.2666 77.4565 46.2666 77.4565 46.1529 77.4565C45.8119 77.4565 45.4709 77.5701 45.1298 77.7973L40.3554 81.9996C39.6733 81.7724 39.1049 81.5453 38.7639 81.4317L45.0161 62.6917L48.6538 62.3509C50.1316 62.1238 51.6094 61.6695 52.8598 60.8745C54.6787 59.8523 57.8616 58.2622 62.1813 58.2622L54.565 65.3039C53.7693 66.0989 54.1103 67.3483 55.1334 67.689C57.1796 68.2569 60.1351 68.7112 62.636 67.2347C66.8421 64.9632 67.9789 63.4867 67.9789 63.4867C67.9789 63.4867 79.3465 73.9357 86.2808 80.1824L86.3945 81.4317C86.7355 83.8168 85.0304 86.0883 82.6432 86.429L81.7337 86.5426C81.7337 89.2684 79.3465 91.4264 76.5046 91.1992L75.4815 91.0856C75.2542 93.4707 73.208 95.2879 70.8208 95.1744H69.1156V95.2879C68.7746 97.2187 67.2968 98.6952 65.3643 98.9224H65.2506C64.9096 98.9224 64.6822 98.8088 64.4549 98.5816C63.8865 98.0138 62.9771 96.9916 61.7266 95.7422L63.8865 93.6979C64.1138 93.4707 64.2275 93.13 64.1138 92.9028C63.8865 91.9942 63.3181 91.1992 62.636 90.6313C61.954 90.0634 61.0446 89.7227 60.1351 89.7227L59.5668 89.9499Z" fill="#F9FBFC"/>
<path d="M128 64.055C128 68.598 127.545 73.141 126.636 77.3433L95.6019 83.3629L95.1472 80.8642L90.2591 55.4232L89.8044 52.9245L125.499 45.8828C127.09 51.6752 128 57.8083 128 64.055Z" fill="#264D74"/>
<path d="M84.803 59.1718L84.2346 56.5596L90.1458 55.4238L95.0339 80.8648L89.1227 82.0006L88.7817 80.0698L84.803 59.1718Z" fill="white" stroke="#264D74" stroke-width="2" stroke-miterlimit="10" stroke-linecap="round"/>
<path d="M45.0158 62.806L38.7636 81.5461L37.7405 84.7262L32.0566 82.7954L40.2414 58.1494L45.9252 60.0802L45.0158 62.806Z" fill="white" stroke="#264D74" stroke-width="2" stroke-miterlimit="10" stroke-linecap="round"/>
<path d="M41.0373 55.7639L40.2416 58.1489L32.0568 82.7949L31.2611 85.18L0.909417 75.0718C0.227357 71.5509 0 67.8029 0 64.0549C0 63.3734 0 62.692 0 62.1241C0.227353 55.5367 1.36412 49.1765 3.4103 43.2705L41.0373 55.7639Z" fill="#264D74"/>
<path d="M45.0161 62.8054L48.6538 62.4647C50.1316 62.2375 51.6094 61.7832 52.8598 60.9882C54.6786 59.966 57.8616 58.376 62.1813 58.376C62.295 58.376 62.295 58.376 62.4087 58.376" stroke="#264D74" stroke-width="2" stroke-miterlimit="10" stroke-linecap="round"/>
<path d="M84.803 59.1712L75.2542 59.3983L67.7515 57.1268C65.819 56.5589 63.7728 57.0132 62.295 58.3761L54.6787 65.4178C53.8829 66.2129 54.224 67.4622 55.247 67.8029C57.2932 68.3708 60.2488 68.8251 62.7497 67.3486C66.9558 65.0771 68.0925 63.6006 68.0925 63.6006C68.0925 63.6006 79.4602 74.0496 86.3945 80.2963L86.5082 81.5456C86.8492 83.9307 85.144 86.2022 82.7568 86.5429L81.8474 86.6565C81.8474 89.3823 79.4602 91.5403 76.6183 91.3131L75.5952 91.1996C75.3678 93.5847 73.3217 95.4019 70.9344 95.2883H69.2293V95.4019C68.8883 97.3327 67.4105 98.8091 65.478 99.0363H65.3643C65.0233 99.0363 64.7959 98.9227 64.5686 98.6956C64.0002 98.1277 63.0907 97.1055 61.8403 95.8562" stroke="#264D74" stroke-width="2" stroke-miterlimit="10" stroke-linecap="round"/>
<path d="M38.7639 81.5449C39.1049 81.6586 39.6733 81.886 40.3554 82.1133" stroke="#264D74" stroke-width="2" stroke-miterlimit="10" stroke-linecap="round"/>
<path d="M40.3552 82.2275C40.6963 84.2719 42.1741 85.8619 44.1066 86.4298H44.3339C44.3339 86.4298 44.3339 86.7705 44.4476 87.1113C44.6749 88.9285 45.9254 90.405 47.6305 90.7457C48.4263 90.9729 48.9946 91.0864 48.9946 91.0864C49.222 93.2444 51.0408 94.948 53.2007 94.948C53.7691 94.948 54.1101 94.948 54.1101 94.948C54.1101 94.948 54.1101 95.0616 54.2238 95.2887C54.9058 97.2195 56.8384 98.4689 58.8845 98.1281C59.2256 98.1281 59.5666 97.901 59.7939 97.6738L61.7265 95.8566L63.8863 93.8122C64.1137 93.5851 64.2273 93.2444 64.1137 93.0172C63.8863 92.1086 63.3179 91.3136 62.6359 90.7457C61.9538 90.1778 61.0444 89.8371 60.135 89.8371H59.4529C59.1119 88.7013 58.4298 87.7927 57.5204 87.1113C56.611 86.4298 55.5879 85.9755 54.4511 85.8619L53.7691 85.7484C53.087 83.9311 51.4955 82.5682 49.563 82.1139L49.3357 82.0004L48.9946 79.956C48.7673 78.5931 47.6305 77.5709 46.2664 77.3438C46.1527 77.3438 46.1527 77.3438 46.0391 77.3438C45.698 77.3438 45.357 77.4573 45.016 77.6845L40.3552 82.2275Z" stroke="#264D74" stroke-width="2" stroke-miterlimit="10" stroke-linecap="round"/>
<path d="M49.4494 82.3408L44.334 86.4296" stroke="#264D74" stroke-width="2" stroke-miterlimit="10" stroke-linecap="round"/>
<path d="M53.8827 85.9756L48.9946 91.0865" stroke="#264D74" stroke-width="2" stroke-miterlimit="10" stroke-linecap="round"/>
<path d="M59.5668 89.9502L54.1104 94.9475" stroke="#264D74" stroke-width="2" stroke-miterlimit="10" stroke-linecap="round"/>
<path d="M81.7337 86.8831L73.0942 79.0464" stroke="#264D74" stroke-width="2" stroke-miterlimit="10" stroke-linecap="round"/>
<path d="M75.4815 91.3128L68.3198 84.6118" stroke="#264D74" stroke-width="2" stroke-miterlimit="10" stroke-linecap="round"/>
<path d="M69.1157 95.4022L62.7498 89.269" stroke="#264D74" stroke-width="2" stroke-miterlimit="10" stroke-linecap="round"/>
<path d="M86.2808 80.4099L88.7816 80.0688" stroke="#264D74" stroke-width="2" stroke-miterlimit="10" stroke-linecap="round"/>
<rect x="22.5858" y="100" width="108.773" height="7.33865" rx="3.66933" transform="rotate(-45 22.5858 100)" fill="#264D74" stroke="#D1E2E9" stroke-width="2"/>
</svg>
