<svg width="128" height="128" viewBox="0 0 128 128" fill="none" xmlns="http://www.w3.org/2000/svg">
<rect width="128" height="128" rx="64" fill="#D1E2E9"/>
<path d="M103.332 75.4813C102.423 75.4813 100.377 75.936 97.8759 76.618C92.3057 78.0958 84.6894 80.3694 83.0979 79.801C80.8244 79.0052 66.0464 72.9804 65.2507 72.6394C65.5917 72.753 70.2524 73.5488 74.1174 74.1171C75.5952 74.3445 77.073 74.4582 78.0961 74.5719C81.9611 74.9129 83.4389 72.1846 82.9842 71.0479C82.6432 69.7974 66.1601 62.4084 57.9753 61.3854C52.0642 60.7033 46.494 62.7495 42.8563 65.5914H27.1689V84.6891H54.1103C60.1352 85.2575 82.5295 88.5541 84.5757 87.9857C86.8492 87.4173 106.515 79.0052 106.97 78.4369C107.538 78.0958 106.174 75.4813 103.332 75.4813Z" fill="white" stroke="#264D74" stroke-width="2" stroke-miterlimit="10"/>
<path d="M38.309 89.8046H32.8525V63.3179H38.309C39.3321 63.3179 40.2415 64.2273 40.2415 65.2504V87.872C40.1279 89.0088 39.3321 89.8046 38.309 89.8046Z" fill="white" stroke="#264D74" stroke-width="2" stroke-miterlimit="10"/>
<path d="M32.8526 63.2042V90.0319C32.8526 90.7139 32.2842 91.1686 31.7158 91.1686H6.02487C2.15986 82.8702 0 73.6624 0 63.9999C0 63.3178 0 62.6358 0 62.0674H31.6021C32.2842 62.0674 32.8526 62.5221 32.8526 63.2042Z" fill="#264D74"/>
<path d="M127.205 52.6328L71.3895 46.8353C70.3664 46.7216 69.457 45.8122 69.457 44.7891V38.4232C69.457 37.1728 70.5938 36.1497 71.7306 36.377L124.136 42.5156" fill="#264D74"/>
<path d="M83.5529 48.0858V51.7235C83.5529 52.1782 83.2118 52.5192 82.7571 52.5192H71.9578C71.5031 52.5192 71.1621 52.1782 71.1621 51.7235V46.7217" fill="#264D74"/>
<path d="M80.142 61.2722C80.142 62.7499 78.8916 64.0004 77.4138 64.0004C75.936 64.0004 74.6855 62.7499 74.6855 61.2722C74.6855 59.7944 77.3001 54.9062 77.4138 54.9062C77.4138 54.9062 80.142 59.7944 80.142 61.2722Z" fill="white" stroke="#264D74" stroke-width="2" stroke-miterlimit="10"/>
</svg>
