<svg width="128" height="128" viewBox="0 0 128 128" fill="none" xmlns="http://www.w3.org/2000/svg">
<g clip-path="url(#clip0_2103_784)">
<rect width="128" height="128" rx="64" fill="#D1E2E9"/>
<path d="M42.8905 54.7168C43.0501 55.3285 43.0831 55.9663 42.9876 56.5913C42.8921 57.2162 42.6701 57.815 42.3351 58.3509C41.1862 60.1336 41.0645 62.3202 37.1461 61.5583C33.2276 60.7964 39.596 54.7701 42.8905 54.7168Z" fill="white" stroke="#264D74" stroke-width="2" stroke-miterlimit="10"/>
<path d="M32.0417 35.0604L32.0179 35.0553C31.9838 35.0482 31.9357 35.0385 31.8755 35.0271C31.7551 35.0041 31.5851 34.9741 31.3793 34.9438C30.9711 34.8838 30.4074 34.821 29.8051 34.8162C29.2128 34.8115 28.5263 34.8621 27.8986 35.062C27.2714 35.2618 26.5869 35.6511 26.2099 36.4012L26.2096 36.4017L26.209 36.403L26.2088 36.4034L26.2054 36.4101L26.1921 36.4364L26.1409 36.5384C26.096 36.6277 26.0304 36.7585 25.9471 36.9254C25.7803 37.2591 25.5424 37.7369 25.2574 38.3142C24.6877 39.4684 23.929 41.0219 23.1745 42.6166C22.4212 44.2089 21.667 45.8526 21.109 47.1838C20.8307 47.8475 20.5948 48.4489 20.4316 48.9343C20.3503 49.1761 20.2815 49.4056 20.2349 49.6089C20.1958 49.7798 20.1437 50.0467 20.1752 50.3103C20.2164 50.6546 20.3468 50.9344 20.4678 51.1462C20.5531 51.2956 20.6636 51.459 20.7531 51.5913C20.7787 51.6291 20.8025 51.6643 20.8236 51.696C21.0339 52.0123 21.2362 52.354 21.3618 52.8772C21.6204 53.954 21.6012 56.0175 19.9762 60.2851C19.9125 60.449 19.8444 60.6229 19.7724 60.8066C18.1172 65.0326 14.4195 74.4736 15.3468 87.5628L15.3959 88.2555L16.0621 88.4515L16.3443 87.4921C16.0621 88.4515 16.0622 88.4515 16.0624 88.4516L16.0629 88.4517L16.0646 88.4522L16.0705 88.454L16.0921 88.4602L16.1734 88.4837C16.2441 88.5039 16.3469 88.533 16.4777 88.5692C16.7394 88.6417 17.1136 88.7428 17.5672 88.8583C18.4726 89.0889 19.7025 89.379 20.9892 89.6131C22.2672 89.8456 23.6408 90.0303 24.8209 90.0349C25.4099 90.0372 25.9895 89.9952 26.5021 89.874C26.9993 89.7565 27.5469 89.5382 27.9433 89.1002C28.2863 88.7211 28.5576 88.1139 28.7868 87.5102C29.0333 86.8608 29.2904 86.0462 29.5584 85.125C29.9049 83.9345 30.2828 82.5193 30.69 80.9944C30.9109 80.1669 31.1405 79.3072 31.3784 78.4335C32.7505 73.3936 34.4087 67.8597 36.43 64.4705C40.5945 57.488 43.8139 55.0439 44.7581 54.5651C44.7558 54.5662 44.7573 54.5658 44.7634 54.564C44.7898 54.5561 44.9022 54.5225 45.1579 54.4856C45.4378 54.4451 45.7966 54.4121 46.2273 54.3801C46.4707 54.362 46.7363 54.3443 47.0169 54.3257C47.7009 54.2802 48.4738 54.2288 49.2294 54.1508C50.2955 54.0408 51.4239 53.87 52.3646 53.5526C53.2534 53.2526 54.2676 52.7248 54.6594 51.6986C55.131 50.4637 55.6223 48.5512 56.0492 46.7989C56.1668 46.3164 56.2792 45.847 56.3856 45.4031C56.6769 44.1874 56.9223 43.1631 57.1003 42.5857C57.2994 41.9401 57.255 41.2956 56.9197 40.7218C56.61 40.1919 56.113 39.828 55.6145 39.5638C54.6332 39.0436 53.2266 38.6995 51.7965 38.3817C50.3042 38.0501 45.3358 37.2158 40.7877 36.4711C38.5032 36.0971 36.3102 35.7434 34.6883 35.4832C33.8773 35.3531 33.2091 35.2463 32.7435 35.1721L32.2047 35.0863L32.0634 35.0638L32.0417 35.0604Z" fill="#264D74" stroke="#264D74" stroke-width="2"/>
<path d="M53.7404 39.8911C53.7404 39.8911 52.4393 50.4505 50.2937 52.9951C51.9448 52.7361 53.3828 52.2332 53.748 51.3419C54.6382 49.0563 55.6577 43.9442 56.1675 42.291C56.5403 41.0796 55.4827 40.3787 53.7404 39.8911Z" fill="white"/>
<path d="M45.3633 46.0009C45.2391 46.3854 44.9926 46.7187 44.6615 46.9498C44.3305 47.1809 43.9329 47.2971 43.5297 47.2808L30.7549 46.3438C30.5796 46.3424 30.4072 46.2983 30.2527 46.2153C30.0982 46.1323 29.9662 46.0129 29.8681 45.8674C29.77 45.7219 29.7087 45.5547 29.6896 45.3802C29.6704 45.2057 29.694 45.0291 29.7582 44.8658L31.2799 40.2184C31.4165 39.8417 31.6769 39.5227 32.0184 39.3137C32.3598 39.1047 32.7621 39.018 33.1592 39.068L45.3329 40.9269C45.5139 40.9484 45.688 41.0098 45.8424 41.1067C45.9969 41.2036 46.128 41.3337 46.2262 41.4874C46.3245 41.6412 46.3874 41.8148 46.4106 41.9959C46.4337 42.1769 46.4165 42.3609 46.3601 42.5345L45.3633 46.0009Z" fill="white"/>
<path d="M35.0995 48.599C35.0995 48.7636 35.0506 48.9244 34.9591 49.0612C34.8677 49.1979 34.7377 49.3043 34.5857 49.3669C34.4337 49.4296 34.2666 49.4456 34.1055 49.4129C33.9444 49.3802 33.7967 49.3004 33.681 49.1835C33.5653 49.0666 33.487 48.9179 33.4558 48.7563C33.4247 48.5947 33.4422 48.4275 33.5061 48.2759C33.5701 48.1243 33.6775 47.9951 33.8149 47.9048C33.9523 47.8145 34.1134 47.7671 34.2777 47.7686C34.3863 47.7686 34.4938 47.7901 34.594 47.8319C34.6942 47.8738 34.7851 47.9351 34.8615 48.0123C34.9379 48.0895 34.9983 48.1811 35.0391 48.2818C35.08 48.3825 35.1005 48.4903 35.0995 48.599Z" fill="#D6E2F2"/>
<path d="M38.6678 48.9193C38.6678 49.0835 38.6192 49.2441 38.5281 49.3807C38.4369 49.5172 38.3074 49.6237 38.1559 49.6865C38.0043 49.7494 37.8376 49.7658 37.6767 49.7338C37.5158 49.7017 37.368 49.6226 37.2521 49.5065C37.1361 49.3904 37.0571 49.2424 37.0251 49.0813C36.9931 48.9202 37.0095 48.7532 37.0723 48.6015C37.1351 48.4498 37.2414 48.3201 37.3777 48.2288C37.5141 48.1376 37.6745 48.0889 37.8385 48.0889C37.9474 48.0889 38.0552 48.1103 38.1559 48.1521C38.2565 48.1938 38.3479 48.255 38.4249 48.3321C38.5019 48.4092 38.563 48.5008 38.6047 48.6015C38.6464 48.7023 38.6678 48.8102 38.6678 48.9193Z" fill="#D6E2F2"/>
<path d="M42.2286 49.3002C42.2285 49.4631 42.1805 49.6224 42.0907 49.7583C42.0008 49.8941 41.8731 50.0004 41.7233 50.0641C41.5735 50.1277 41.4083 50.1459 41.2484 50.1162C41.0884 50.0866 40.9406 50.0105 40.8235 49.8973C40.7064 49.7842 40.6251 49.6391 40.5898 49.4801C40.5544 49.3211 40.5666 49.1552 40.6247 49.003C40.6828 48.8508 40.7844 48.7191 40.9167 48.6243C41.049 48.5295 41.2063 48.4758 41.3688 48.4698C41.4803 48.4657 41.5914 48.4842 41.6956 48.524C41.7997 48.5639 41.8948 48.6245 41.9751 48.702C42.0553 48.7795 42.1191 48.8724 42.1627 48.9752C42.2063 49.078 42.2287 49.1886 42.2286 49.3002Z" fill="#D6E2F2"/>
<path d="M16.5803 84.353C16.4536 84.3452 16.3265 84.3452 16.1998 84.353C16.1998 85.3663 16.2531 86.4024 16.3292 87.469C16.3292 87.469 25.5736 90.1889 27.1866 88.4061C27.6378 87.7167 27.972 86.9573 28.1757 86.1586C24.8812 87.7509 16.5803 84.353 16.5803 84.353Z" fill="white"/>
<path d="M37.8004 61.5584C37.8004 61.5584 33.357 62.1755 31.7668 63.1964C30.1766 64.2173 28.4342 65.1849 28.9592 66.7924C29.4842 68.3999 31.2418 68.9713 34.6732 68.0571C38.1047 67.1429 39.8851 66.8686 40.5547 64.3544C41.2242 61.8403 39.2232 61.3756 37.8004 61.5584Z" fill="white" stroke="#264D74" stroke-width="2" stroke-miterlimit="10"/>
<g style="mix-blend-mode:multiply" opacity="0.4">
<path d="M29.0507 66.9903C29.6441 68.4379 31.3941 68.9331 34.6734 68.0569C36.7125 67.516 38.1505 67.1884 39.132 66.5332C37.4505 65.4133 34.0267 65.9771 31.5234 66.8608C29.7887 67.4246 29.2333 67.196 29.0507 66.9903Z" fill="#E8B5A2"/>
</g>
<path d="M35.282 66.4496C35.282 66.4496 30.8386 67.0667 29.2484 68.0953C27.6582 69.1238 25.9234 70.0761 26.4408 71.6836C26.9582 73.2911 28.7234 73.8625 32.1548 72.9483C35.5863 72.0341 37.3667 71.7598 38.0287 69.2457C38.6906 66.7315 36.7124 66.282 35.282 66.4496Z" fill="white" stroke="#264D74" stroke-width="2" stroke-miterlimit="10"/>
<path d="M34.1103 72.0416C34.1103 72.0416 29.6213 72.2016 27.9322 73.0701C26.2431 73.9386 24.417 74.7005 24.7594 76.3537C25.1018 78.0069 26.7909 78.7536 30.3061 78.1898C33.8212 77.626 35.6321 77.527 36.5527 75.0966C37.4733 72.6663 35.5484 72.0035 34.1103 72.0416Z" fill="white" stroke="#264D74" stroke-width="2" stroke-miterlimit="10"/>
<path d="M31.7136 77.3974C31.7136 77.3974 27.5441 77.2983 26.0605 78.0526C24.5768 78.8068 23.329 79.3249 23.4507 80.8257C23.5725 82.3266 24.6833 83.1799 27.392 83.2103C30.4886 83.2103 32.2082 83.4618 33.631 81.0467C35.1984 78.3878 33.2049 77.4507 31.7136 77.3974Z" fill="white" stroke="#264D74" stroke-width="2" stroke-miterlimit="10"/>
<path d="M79.5714 76.1862C79.5714 76.1862 84.7833 85.397 82.4855 92.3147C82.4855 92.3147 101.811 90.0292 104.878 82.6315C104.878 82.6315 97.5581 72.0797 98.0754 59.6157C98.0754 59.631 90.9234 76.8109 79.5714 76.1862Z" fill="white" stroke="#264D74" stroke-width="2" stroke-miterlimit="10" stroke-linecap="round"/>
<path d="M98.8973 51.9282C98.8973 66.693 90.2007 78.6542 79.4803 78.6542C68.7598 78.6542 60.0708 66.693 60.0708 51.9282C60.0708 37.1633 68.7598 25.2021 79.4803 25.2021C90.2007 25.2021 98.8973 37.1633 98.8973 51.9282Z" fill="white" stroke="#264D74" stroke-width="2" stroke-miterlimit="10" stroke-linecap="round"/>
<path d="M89.6528 52.7511C89.6528 52.7511 86.3735 46.4353 90.6115 37.5139C90.6115 37.5139 83.2464 41.9632 72.7389 39.5633C72.7389 39.5633 75.44 38.4205 76.4976 37.0568C76.4976 37.0568 66.4999 41.4223 62.2543 40.6071C58.0087 39.7919 51.298 31.7162 55.1707 22.0939C55.1707 22.0939 57.9631 23.5719 62.2467 22.2691C64.9641 21.4536 67.7319 20.8173 70.5324 20.3645C70.5324 20.3645 67.1771 19.6026 64.9934 20.2197C64.9934 20.2197 94.6668 10.7803 101.72 31.5638C101.72 31.5638 109.465 33.8951 107.305 48.2714C105.144 62.6477 98.9352 68.5521 98.9352 68.5521C98.9352 68.5521 93.6092 64.918 93.9212 60.0345C93.9212 60.0269 94.6896 53.0178 89.6528 52.7511Z" fill="#264D74"/>
<path d="M65.3816 48.2485C65.3816 49.8179 64.7957 51.0902 64.0805 51.0902C63.3653 51.0902 62.7719 49.8179 62.7719 48.2485C62.7719 46.679 63.3577 45.4067 64.0805 45.4067C64.8033 45.4067 65.3816 46.679 65.3816 48.2485Z" fill="#4E5069"/>
<path d="M82.1737 57.0022C82.1737 57.0022 61.0219 53.3301 60.0937 53.3301C59.1654 53.3301 58.1078 58.0765 58.7089 60.0725C59.31 62.0686 61.623 76.8334 73.4315 78.9666C80.4238 80.239 86.9747 76.5896 86.9747 76.5896C86.9747 76.5896 80.9335 65.6036 82.1737 57.0022Z" fill="#264D74"/>
<path d="M86.9746 76.5899C89.5727 74.499 91.6721 71.854 93.12 68.8477C94.5679 65.8414 95.3277 62.5495 95.344 59.2119C95.344 59.2119 94.3854 69.9465 86.442 75.5309L86.9746 76.5899Z" fill="white"/>
<path d="M82.1737 57.0021C82.1737 57.0021 90.642 51.6691 92.3387 51.8672C92.3387 51.8672 83.6954 56.6898 82.0139 59.1506L82.1737 57.0021Z" fill="#264D74"/>
<path d="M96.9115 58.6631C95.5495 62.5257 92.6583 65.0246 90.4594 64.2475C88.2605 63.4704 87.5834 59.6763 88.9377 55.867C90.292 52.0577 93.1909 49.5131 95.3898 50.2902C97.5886 51.0673 98.2354 54.7776 96.9115 58.6631Z" fill="white" stroke="#264D74" stroke-width="2" stroke-miterlimit="10" stroke-linecap="round"/>
<path d="M115.697 101.739C114.213 92.8481 111.984 85.1609 110.371 82.4106C110.371 82.4106 100.678 79.028 94.1495 83.1725C87.9333 87.1342 69.3075 90.5625 65.5337 127.947C75.3449 127.736 84.9752 125.261 93.6756 120.716C102.376 116.17 109.912 109.676 115.697 101.739Z" fill="#264D74" stroke="#D1E2E9" stroke-width="2" stroke-miterlimit="10"/>
<path d="M30.2452 56.568C27.0191 57.7565 20.6584 57.4136 18.0715 57.3298C15.4846 57.246 5.72277 67.4397 4.70322 68.5673C4.45974 68.8263 2.79347 69.0396 0.38916 69.2148C0.768776 73.9926 1.68244 78.7126 3.11303 83.2864C8.39337 82.7607 16.1922 83.8502 16.1922 83.8502C15.9335 76.6277 18.9769 65.9998 18.9769 65.9998C18.9769 65.9998 22.8649 65.2379 25.8246 64.918C28.7843 64.598 34.7342 60.4154 35.4951 57.6955C36.2559 54.9757 33.4712 55.3795 30.2452 56.568Z" fill="white" stroke="#264D74" stroke-width="2" stroke-miterlimit="10"/>
</g>
<defs>
<clipPath id="clip0_2103_784">
<rect width="128" height="128" rx="64" fill="white"/>
</clipPath>
</defs>
</svg>
