<svg width="128" height="128" viewBox="0 0 128 128" fill="none" xmlns="http://www.w3.org/2000/svg">
<rect width="128" height="128" rx="64" fill="#D1E2E9"/>
<path d="M37.3993 53.8799C37.3993 58.768 33.4206 62.8603 28.4188 62.8603C23.5307 62.8603 19.4384 58.8816 19.4384 53.8799C19.4384 48.9918 23.417 44.8994 28.4188 44.8994C33.4206 44.8994 37.3993 48.9918 37.3993 53.8799Z" fill="#264D74" stroke="#D1E2E9" stroke-width="2" stroke-miterlimit="10"/>
<path d="M33.4206 62.8608C31.9429 63.6566 30.2377 64.1113 28.5325 64.1113C26.7137 64.1113 25.0086 63.6566 23.6444 62.8608C18.6427 64.7933 15.005 69.7951 15.005 75.4789V83.0953H42.1737V75.4789C42.0601 69.6814 38.4224 64.7933 33.4206 62.8608Z" fill="#264D74" stroke="#D1E2E9" stroke-width="2" stroke-miterlimit="10"/>
<path d="M108.447 53.8799C108.447 58.768 104.468 62.8603 99.4665 62.8603C94.5784 62.8603 90.4861 58.8816 90.4861 53.8799C90.4861 48.9918 94.4648 44.8994 99.4665 44.8994C104.355 44.8994 108.447 48.9918 108.447 53.8799Z" fill="#264D74" stroke="#D1E2E9" stroke-width="2" stroke-miterlimit="10"/>
<path d="M104.468 62.8608C102.991 63.6566 101.285 64.1113 99.5803 64.1113C97.7614 64.1113 96.0563 63.6566 94.6922 62.8608C89.6904 64.7933 86.0527 69.7951 86.0527 75.4789V83.0953H113.221V75.4789C112.994 69.6814 109.47 64.7933 104.468 62.8608Z" fill="#264D74" stroke="#D1E2E9" stroke-width="2" stroke-miterlimit="10"/>
<path d="M45.2432 69.1138H82.4154" stroke="#264D74" stroke-width="2" stroke-miterlimit="10" stroke-linecap="round" stroke-linejoin="round"/>
<path d="M78.2096 72.865L82.4156 69.1136L78.2096 65.3623" stroke="#264D74" stroke-width="2" stroke-miterlimit="10" stroke-linecap="round" stroke-linejoin="round"/>
<path d="M49.3356 72.865L45.1295 69.1136L49.3356 65.3623" stroke="#264D74" stroke-width="2" stroke-miterlimit="10" stroke-linecap="round" stroke-linejoin="round"/>
<path d="M54.8625 61.7807C55.1042 61.5888 55.2143 61.5 55.193 61.5142C55.8895 60.9385 56.4368 60.4659 56.8348 60.0963C57.2399 59.7268 57.581 59.3394 57.8582 58.9343C58.1353 58.5292 58.2739 58.1348 58.2739 57.751C58.2739 57.4596 58.2064 57.2322 58.0714 57.0687C57.9363 56.9053 57.7338 56.8235 57.4637 56.8235C57.1937 56.8235 56.9804 56.9266 56.8241 57.1327C56.6748 57.3317 56.6002 57.616 56.6002 57.9855H54.8412C54.8554 57.3814 54.9834 56.8768 55.225 56.4717C55.4737 56.0666 55.7971 55.7681 56.1951 55.5762C56.6002 55.3843 57.048 55.2884 57.5384 55.2884C58.3841 55.2884 59.0202 55.5052 59.4466 55.9387C59.8801 56.3722 60.0969 56.9372 60.0969 57.6337C60.0969 58.3942 59.8375 59.1013 59.3187 59.7552C58.7999 60.4019 58.1389 61.0345 57.3358 61.6528H60.2142V63.1346H54.8625V61.7807ZM71.9323 55.7575V63.2412H70.1094V58.7531L68.4356 63.2412H66.9645L65.2801 58.7424V63.2412H63.4571V55.7575H65.6106L67.7107 60.9385L69.7895 55.7575H71.9323Z" fill="#264D74"/>
</svg>
